<mxfile host="app.diagrams.net" modified="2024-03-18T13:39:53.912Z" agent="Mozilla/5.0 (Macintosh; Intel Mac OS X 10_15_7) AppleWebKit/537.36 (KHTML, like Gecko) Chrome/122.0.0.0 Safari/537.36" etag="hyxZ7XWl_JEraGO-BG8J" version="24.0.7" type="github">
  <diagram name="Page-1" id="Oz_4nBWgqwq5wmmbGXSZ">
    <mxGraphModel dx="2133" dy="826" grid="1" gridSize="10" guides="1" tooltips="1" connect="1" arrows="1" fold="1" page="1" pageScale="1" pageWidth="827" pageHeight="1169" math="0" shadow="0">
      <root>
        <mxCell id="0" />
        <mxCell id="1" parent="0" />
        <mxCell id="GfbMEB7b_NVZlZo3JakK-17" value="" style="rounded=0;whiteSpace=wrap;html=1;fillColor=#d5e8d4;strokeColor=#82b366;gradientColor=#97d077;" vertex="1" parent="1">
          <mxGeometry x="270" y="145" width="570" height="530" as="geometry" />
        </mxCell>
        <mxCell id="GfbMEB7b_NVZlZo3JakK-15" value="" style="rounded=0;whiteSpace=wrap;html=1;fillColor=#fff2cc;gradientColor=#ffd966;strokeColor=#d6b656;" vertex="1" parent="1">
          <mxGeometry x="-210" y="340" width="430" height="230" as="geometry" />
        </mxCell>
        <mxCell id="GfbMEB7b_NVZlZo3JakK-8" style="edgeStyle=orthogonalEdgeStyle;rounded=0;orthogonalLoop=1;jettySize=auto;html=1;entryX=0;entryY=0.5;entryDx=0;entryDy=0;" edge="1" parent="1" source="GfbMEB7b_NVZlZo3JakK-1" target="GfbMEB7b_NVZlZo3JakK-2">
          <mxGeometry relative="1" as="geometry" />
        </mxCell>
        <mxCell id="GfbMEB7b_NVZlZo3JakK-1" value="注册路由" style="rounded=0;whiteSpace=wrap;html=1;" vertex="1" parent="1">
          <mxGeometry x="70" y="380" width="120" height="60" as="geometry" />
        </mxCell>
        <mxCell id="GfbMEB7b_NVZlZo3JakK-9" style="rounded=0;orthogonalLoop=1;jettySize=auto;html=1;entryX=0;entryY=0.5;entryDx=0;entryDy=0;exitX=0.5;exitY=0;exitDx=0;exitDy=0;" edge="1" parent="1" source="GfbMEB7b_NVZlZo3JakK-2" target="GfbMEB7b_NVZlZo3JakK-3">
          <mxGeometry relative="1" as="geometry" />
        </mxCell>
        <mxCell id="GfbMEB7b_NVZlZo3JakK-2" value="路由策略" style="rounded=0;whiteSpace=wrap;html=1;" vertex="1" parent="1">
          <mxGeometry x="320" y="380" width="120" height="60" as="geometry" />
        </mxCell>
        <mxCell id="GfbMEB7b_NVZlZo3JakK-10" style="rounded=0;orthogonalLoop=1;jettySize=auto;html=1;entryX=0.5;entryY=0;entryDx=0;entryDy=0;exitX=1;exitY=0.5;exitDx=0;exitDy=0;" edge="1" parent="1" source="GfbMEB7b_NVZlZo3JakK-3" target="GfbMEB7b_NVZlZo3JakK-4">
          <mxGeometry relative="1" as="geometry" />
        </mxCell>
        <mxCell id="GfbMEB7b_NVZlZo3JakK-3" value="指标采集" style="rounded=0;whiteSpace=wrap;html=1;" vertex="1" parent="1">
          <mxGeometry x="500" y="190" width="120" height="60" as="geometry" />
        </mxCell>
        <mxCell id="GfbMEB7b_NVZlZo3JakK-4" value="运营分析" style="rounded=0;whiteSpace=wrap;html=1;" vertex="1" parent="1">
          <mxGeometry x="707" y="380" width="120" height="60" as="geometry" />
        </mxCell>
        <mxCell id="GfbMEB7b_NVZlZo3JakK-12" style="rounded=0;orthogonalLoop=1;jettySize=auto;html=1;entryX=0.5;entryY=1;entryDx=0;entryDy=0;exitX=0.5;exitY=0;exitDx=0;exitDy=0;" edge="1" parent="1" source="GfbMEB7b_NVZlZo3JakK-5" target="GfbMEB7b_NVZlZo3JakK-2">
          <mxGeometry relative="1" as="geometry" />
        </mxCell>
        <mxCell id="GfbMEB7b_NVZlZo3JakK-5" value="响应码分析" style="rounded=0;whiteSpace=wrap;html=1;" vertex="1" parent="1">
          <mxGeometry x="500" y="585" width="120" height="60" as="geometry" />
        </mxCell>
        <mxCell id="GfbMEB7b_NVZlZo3JakK-7" style="edgeStyle=orthogonalEdgeStyle;rounded=0;orthogonalLoop=1;jettySize=auto;html=1;entryX=0;entryY=0.5;entryDx=0;entryDy=0;exitX=1;exitY=0.5;exitDx=0;exitDy=0;" edge="1" parent="1" source="GfbMEB7b_NVZlZo3JakK-13" target="GfbMEB7b_NVZlZo3JakK-1">
          <mxGeometry relative="1" as="geometry">
            <mxPoint x="-20" y="410" as="sourcePoint" />
          </mxGeometry>
        </mxCell>
        <mxCell id="GfbMEB7b_NVZlZo3JakK-11" style="rounded=0;orthogonalLoop=1;jettySize=auto;html=1;entryX=0.5;entryY=0;entryDx=0;entryDy=0;exitX=0.5;exitY=1;exitDx=0;exitDy=0;" edge="1" parent="1" source="GfbMEB7b_NVZlZo3JakK-4" target="GfbMEB7b_NVZlZo3JakK-5">
          <mxGeometry relative="1" as="geometry" />
        </mxCell>
        <mxCell id="GfbMEB7b_NVZlZo3JakK-13" value="渠道集成" style="rounded=0;whiteSpace=wrap;html=1;" vertex="1" parent="1">
          <mxGeometry x="-150" y="380" width="120" height="60" as="geometry" />
        </mxCell>
        <mxCell id="GfbMEB7b_NVZlZo3JakK-14" value="产品" style="shape=umlActor;verticalLabelPosition=bottom;verticalAlign=top;html=1;outlineConnect=0;" vertex="1" parent="1">
          <mxGeometry x="-120" y="480" width="30" height="60" as="geometry" />
        </mxCell>
        <mxCell id="GfbMEB7b_NVZlZo3JakK-16" value="研发" style="shape=umlActor;verticalLabelPosition=bottom;verticalAlign=top;html=1;outlineConnect=0;" vertex="1" parent="1">
          <mxGeometry x="-10" y="480" width="30" height="60" as="geometry" />
        </mxCell>
        <mxCell id="GfbMEB7b_NVZlZo3JakK-18" value="渠道运营" style="shape=umlActor;verticalLabelPosition=bottom;verticalAlign=top;html=1;outlineConnect=0;" vertex="1" parent="1">
          <mxGeometry x="360" y="560" width="30" height="60" as="geometry" />
        </mxCell>
      </root>
    </mxGraphModel>
  </diagram>
</mxfile>
